<svg width="64" height="64" viewBox="0 0 64 64" fill="none" xmlns="http://www.w3.org/2000/svg">
<rect width="64" height="64" rx="10" fill="#2450FF"/>
<path d="M16.0694 47.4312C14.1067 47.4312 12.4712 47.1041 11.1627 46.4499C9.85426 45.7672 8.87293 44.8285 8.21871 43.6338C7.56449 42.4107 7.19471 40.9743 7.10938 39.3245H11.0347C11.1485 40.7467 11.5894 41.8561 12.3574 42.6525C13.1254 43.449 14.3627 43.8472 16.0694 43.8472C17.264 43.8472 18.2596 43.6339 19.056 43.2072C19.8525 42.7521 20.4498 41.9841 20.848 40.9032C21.2463 39.7938 21.4454 38.2721 21.4454 36.3379V17.1378H25.456V36.3379C25.456 38.9832 25.1147 41.1307 24.432 42.7805C23.7494 44.4019 22.7112 45.5823 21.3174 46.3219C19.952 47.0614 18.2027 47.4312 16.0694 47.4312Z" fill="white"/>
<path d="M44.856 47.4312C42.6374 47.4312 40.5752 46.905 38.6694 45.8525C36.7636 44.8001 35.2134 43.1645 34.0187 40.9459C32.8525 38.6987 32.2694 35.8116 32.2694 32.2845V31.4312C32.2694 28.8712 32.6107 26.6667 33.2934 24.8178C33.976 22.969 34.9005 21.4472 36.0667 20.2525C37.2329 19.0578 38.5698 18.1761 40.0774 17.6072C41.6134 17.0098 43.2063 16.7112 44.856 16.7112C46.4774 16.7112 47.9565 16.9245 49.2934 17.3512C50.6587 17.7778 51.8534 18.3894 52.8774 19.1858C53.9014 19.9823 54.7263 20.9636 55.352 22.1298C56.0063 23.2961 56.4187 24.6187 56.5894 26.0978H52.3227C51.9245 24.1636 51.0854 22.713 49.8054 21.7458C48.5254 20.7787 46.8756 20.2952 44.856 20.2952C43.4623 20.2952 42.1254 20.6507 40.8454 21.3618C39.5654 22.073 38.5272 23.2534 37.7307 24.9032C36.9343 26.5245 36.536 28.7005 36.536 31.4312V32.2845C36.536 34.4463 36.7778 36.2667 37.2614 37.7459C37.7734 39.225 38.4418 40.4196 39.2667 41.3299C40.0916 42.2116 40.9876 42.8516 41.9547 43.2499C42.9503 43.6481 43.9174 43.8472 44.856 43.8472C47.0747 43.8472 48.8098 43.3067 50.0614 42.2258C51.3129 41.145 52.0667 39.7512 52.3227 38.0445H56.5894C56.3618 39.6943 55.9067 41.1165 55.224 42.3112C54.5414 43.5058 53.6738 44.4872 52.6214 45.2552C51.5974 45.9947 50.4169 46.5494 49.08 46.9192C47.7716 47.2605 46.3636 47.4312 44.856 47.4312Z" fill="white"/>
</svg>
